# xmcd
#
# Track frame offsets:
#	150
#	21793
#	43834
#	58753
#	74924
#	88643
#	103253
#	117920
#	129828
#	147324
#	160845
#	179138
#	197360
#	215936
#	229546
#	247035
#	262564
#	276423
#	291676
#	306034
#	320816
#
# Disc length: 4443
#
# Revision: 1
# Processed by: cddbd v1.5.1PL0 Copyright (c) Steve Scherf et al.
# Submitted via: VisiTrax 2.9.5.180 - For more info visit www.synapsa.com
# Normalized: r0:DSETVAR1
#
DISCID=50115915
DTITLE=Various Artist - CDX 300 September 2002
DYEAR=2002
DGENRE=
TTITLE0=Kenny Chesney - A lot of things different
TTITLE1=Craig Morgan - Almost home
TTITLE2=Trace adkins - Chrome
TTITLE3=Dale Watson - Country my ass
TTITLE4=Chris LeDoux - Cowboy up
TTITLE5=Daryle Singletary - I'd love to lay you down
TTITLE6=Cyndi Thomson - If you could only see
TTITLE7=Trini Triggs - I'm only in it for the love
TTITLE8=Dixie Chicks - Landslide
TTITLE9=Chalee tennison - Lonesome road
TTITLE10=Great Divide - Lost in the night
TTITLE11=Rodney Atkins - My old man
TTITLE12=Andy Griggs/Martina McBride - Practice life
TTITLE13=George Strait - She'll leave you with a smile
TTITLE14=Neal McCoy - The luckiest man in the world
TTITLE15=Royal Wade Kimes - There ain't enough miles
TTITLE16=Pam Tillis - Unmitigated gall
TTITLE17=Ray Price - You just don't love me anymore
TTITLE18=Toby Keith - Who's your daddy
TTITLE19=Mark Alan Thompson - The trouble with a woman
TTITLE20=Nancy Hays - Come dance with me
EXTD=
EXTT0=
EXTT1=
EXTT2=
EXTT3=
EXTT4=
EXTT5=
EXTT6=
EXTT7=
EXTT8=
EXTT9=
EXTT10=
EXTT11=
EXTT12=
EXTT13=
EXTT14=
EXTT15=
EXTT16=
EXTT17=
EXTT18=
EXTT19=
EXTT20=
PLAYORDER=
